<svg xmlns="http://www.w3.org/2000/svg" xmlns:xlink="http://www.w3.org/1999/xlink" width="500" zoomAndPan="magnify" viewBox="0 0 375 374.999991" height="500" preserveAspectRatio="xMidYMid meet" version="1.0"><defs><clipPath id="d673965779"><path d="M 108 37.5 L 271 37.5 L 271 158 L 108 158 Z M 108 37.5 " clip-rule="nonzero"/></clipPath><clipPath id="6face1c55d"><path d="M 69 118 L 305.964844 118 L 305.964844 323.25 L 69 323.25 Z M 69 118 " clip-rule="nonzero"/></clipPath></defs><g clip-path="url(#d673965779)"><path fill="#c1ff72" d="M 180.152344 37.515625 C 173.214844 37.820312 165.046875 39.226562 159.617188 43.921875 C 166.046875 50.441406 179.585938 62.765625 182.515625 70.734375 C 185.089844 77.75 180.636719 92.3125 178.585938 100.089844 C 178.035156 102.1875 175.601562 103.105469 173.808594 101.964844 C 161.464844 95.628906 147.394531 97.851562 132.875 100.152344 C 124.734375 101.441406 116.464844 102.75 108.097656 102.695312 C 111.695312 105.964844 117.375 109.089844 124.195312 111.71875 C 137.144531 116.703125 148.011719 117.835938 161.734375 118.636719 C 165.507812 118.859375 165.746094 124.386719 162.023438 124.949219 C 152.816406 126.917969 143.15625 130.300781 135.9375 136.125 C 129.8125 141.066406 125.421875 147.871094 124.601562 157.230469 C 145.914062 151.058594 154.351562 145.9375 164.824219 139.578125 C 170.554688 136.097656 176.875 132.257812 186.113281 127.695312 C 187.6875 126.917969 189.226562 126.328125 190.71875 127.984375 C 198.070312 134.644531 206.867188 139.496094 217.757812 143.695312 C 227.757812 147.554688 239.617188 150.882812 253.757812 154.546875 C 250.492188 145.101562 239.679688 138.628906 226.71875 130.871094 C 223.84375 129.152344 220.4375 127.296875 217.722656 125.414062 C 216.339844 124.453125 215.941406 122.566406 216.84375 121.121094 C 218.066406 119.160156 240.316406 114.832031 248.285156 113.011719 C 255.320312 111.40625 266.308594 107.792969 270.390625 102.25 C 262.683594 101.859375 255.449219 100.28125 248.351562 98.738281 C 231.152344 94.992188 219.738281 92.75 203.664062 102.007812 C 202.191406 102.851562 200.296875 102.386719 199.390625 100.933594 C 194.753906 93.5 213.242188 62.296875 180.152344 37.515625 Z M 180.152344 37.515625 " fill-opacity="1" fill-rule="evenodd"/></g><g clip-path="url(#6face1c55d)"><path fill="#ff5757" d="M 257.089844 161.964844 C 240.632812 157.753906 227.039062 154.066406 215.472656 149.605469 C 204.554688 145.394531 195.550781 140.511719 187.859375 133.894531 C 179.417969 138.117188 173.492188 141.714844 168.101562 144.992188 C 158.199219 151.003906 131.671875 164.386719 121.382812 164.628906 C 119.65625 164.667969 118.222656 163.328125 118.132812 161.617188 C 117.527344 149.664062 122.730469 138.636719 131.964844 131.183594 C 135.796875 128.09375 140.175781 125.628906 144.785156 123.660156 C 137.6875 122.554688 130.761719 120.800781 124.539062 118.605469 C 90.953125 138.386719 69.046875 173.214844 69.046875 212.578125 C 69.046875 276.875 125.390625 323.535156 187.585938 323.535156 C 249.78125 323.535156 306.125 276.875 306.125 212.578125 C 306.125 173.378906 284.367188 138.628906 250.984375 118.8125 C 243.320312 120.996094 235.566406 122.445312 227.796875 124.132812 L 229.972656 125.433594 C 239.101562 130.898438 264.496094 145.839844 260.957031 159.675781 C 260.523438 161.375 258.789062 162.398438 257.089844 161.964844 Z M 282.046875 185.816406 C 280.773438 181.847656 286.808594 179.910156 288.082031 183.878906 C 295.527344 206.929688 293.675781 232.078125 282.988281 253.855469 C 281.15625 257.59375 275.472656 254.8125 277.300781 251.074219 C 287.238281 230.832031 288.972656 207.25 282.046875 185.816406 Z M 268.835938 264.972656 C 271.320312 261.625 276.410156 265.402344 273.925781 268.75 C 265.199219 280.574219 253.902344 290.351562 241.074219 297.5 C 237.433594 299.523438 234.355469 293.984375 237.996094 291.960938 C 250.046875 285.246094 260.640625 276.078125 268.835938 264.972656 Z M 268.835938 264.972656 " fill-opacity="1" fill-rule="evenodd"/></g></svg>