<svg xmlns="http://www.w3.org/2000/svg" xmlns:xlink="http://www.w3.org/1999/xlink" width="500" zoomAndPan="magnify" viewBox="0 0 375 374.999991" height="500" preserveAspectRatio="xMidYMid meet" version="1.0"><defs><g/><clipPath id="8c7cc9fa9a"><path d="M 148 53.550781 L 240 53.550781 L 240 121 L 148 121 Z M 148 53.550781 " clip-rule="nonzero"/></clipPath><clipPath id="0ad35820b7"><path d="M 126.78125 99 L 260 99 L 260 214.050781 L 126.78125 214.050781 Z M 126.78125 99 " clip-rule="nonzero"/></clipPath></defs><g clip-path="url(#8c7cc9fa9a)"><path fill="#c1ff72" d="M 189.238281 53.554688 C 185.339844 53.726562 180.75 54.519531 177.699219 57.15625 C 181.3125 60.816406 188.917969 67.738281 190.5625 72.214844 C 192.011719 76.15625 189.507812 84.335938 188.355469 88.707031 C 188.046875 89.882812 186.679688 90.398438 185.671875 89.757812 C 178.738281 86.199219 170.835938 87.449219 162.679688 88.738281 C 158.109375 89.464844 153.460938 90.199219 148.761719 90.167969 C 150.78125 92.003906 153.972656 93.761719 157.804688 95.238281 C 165.078125 98.039062 171.183594 98.671875 178.890625 99.121094 C 181.011719 99.246094 181.144531 102.351562 179.054688 102.667969 C 173.878906 103.773438 168.453125 105.675781 164.402344 108.945312 C 160.960938 111.722656 158.492188 115.542969 158.03125 120.800781 C 170.003906 117.335938 174.742188 114.457031 180.625 110.886719 C 183.84375 108.929688 187.394531 106.773438 192.582031 104.210938 C 193.46875 103.773438 194.332031 103.445312 195.171875 104.371094 C 199.300781 108.113281 204.242188 110.839844 210.359375 113.199219 C 215.976562 115.367188 222.636719 117.234375 230.582031 119.292969 C 228.746094 113.988281 222.671875 110.351562 215.394531 105.996094 C 213.777344 105.027344 211.863281 103.988281 210.339844 102.929688 C 209.5625 102.390625 209.339844 101.328125 209.84375 100.519531 C 210.53125 99.417969 223.03125 96.984375 227.507812 95.964844 C 231.457031 95.0625 237.632812 93.03125 239.921875 89.917969 C 235.59375 89.699219 231.53125 88.8125 227.542969 87.945312 C 217.882812 85.839844 211.472656 84.582031 202.445312 89.78125 C 201.613281 90.257812 200.550781 89.996094 200.042969 89.179688 C 197.4375 85.003906 207.820312 67.476562 189.238281 53.554688 Z M 189.238281 53.554688 " fill-opacity="1" fill-rule="evenodd"/></g><g clip-path="url(#0ad35820b7)"><path fill="#ff5757" d="M 232.453125 123.460938 C 223.207031 121.09375 215.570312 119.023438 209.074219 116.519531 C 202.941406 114.152344 197.886719 111.410156 193.5625 107.695312 C 188.824219 110.066406 185.492188 112.085938 182.464844 113.925781 C 176.90625 117.304688 162.003906 124.820312 156.222656 124.957031 C 155.253906 124.980469 154.449219 124.226562 154.398438 123.265625 C 154.058594 116.550781 156.980469 110.359375 162.167969 106.171875 C 164.320312 104.433594 166.78125 103.050781 169.371094 101.945312 C 165.382812 101.324219 161.492188 100.339844 157.996094 99.105469 C 139.128906 110.21875 126.824219 129.78125 126.824219 151.890625 C 126.824219 188.007812 158.476562 214.214844 193.410156 214.214844 C 228.347656 214.214844 259.996094 188.007812 259.996094 151.890625 C 259.996094 129.871094 247.773438 110.351562 229.023438 99.222656 C 224.71875 100.445312 220.363281 101.261719 216 102.210938 L 217.21875 102.941406 C 222.347656 106.011719 236.613281 114.402344 234.625 122.171875 C 234.378906 123.128906 233.40625 123.707031 232.453125 123.460938 Z M 246.472656 136.859375 C 245.753906 134.628906 249.144531 133.542969 249.859375 135.769531 C 254.042969 148.71875 253.003906 162.84375 247 175.078125 C 245.972656 177.175781 242.777344 175.617188 243.804688 173.515625 C 249.386719 162.144531 250.359375 148.898438 246.472656 136.859375 Z M 239.050781 181.324219 C 240.445312 179.441406 243.304688 181.5625 241.910156 183.441406 C 237.007812 190.085938 230.664062 195.574219 223.457031 199.589844 C 221.410156 200.730469 219.683594 197.617188 221.726562 196.480469 C 228.496094 192.710938 234.445312 187.558594 239.050781 181.324219 Z M 239.050781 181.324219 " fill-opacity="1" fill-rule="evenodd"/></g><g fill="#d32f23" fill-opacity="0.4196"><g transform="translate(151.418323, 259.831625)"><g><path d="M 14.421875 -31.984375 C 16.640625 -31.984375 18.394531 -31.253906 19.6875 -29.796875 C 20.976562 -28.335938 21.625 -26.40625 21.625 -24 C 21.625 -23.238281 21.59375 -22.660156 21.53125 -22.265625 C 21.195312 -19.429688 20.1875 -17.160156 18.5 -15.453125 C 16.8125 -13.753906 14.765625 -12.90625 12.359375 -12.90625 L 9.078125 -12.90625 C 8.953125 -12.90625 8.863281 -12.832031 8.8125 -12.6875 L 7.34375 -0.546875 C 7.3125 -0.390625 7.234375 -0.257812 7.109375 -0.15625 C 6.992188 -0.0507812 6.859375 0 6.703125 0 L 1.546875 0 C 1.398438 0 1.28125 -0.0507812 1.1875 -0.15625 C 1.09375 -0.257812 1.0625 -0.390625 1.09375 -0.546875 L 4.875 -31.4375 C 4.90625 -31.582031 4.972656 -31.707031 5.078125 -31.8125 C 5.191406 -31.925781 5.320312 -31.984375 5.46875 -31.984375 Z M 11.640625 -17.9375 C 12.703125 -17.9375 13.582031 -18.390625 14.28125 -19.296875 C 14.976562 -20.210938 15.328125 -21.460938 15.328125 -23.046875 C 15.328125 -24.109375 15.09375 -24.9375 14.625 -25.53125 C 14.15625 -26.125 13.507812 -26.421875 12.6875 -26.421875 L 10.71875 -26.421875 C 10.570312 -26.421875 10.5 -26.34375 10.5 -26.1875 L 9.484375 -18.15625 C 9.484375 -18.007812 9.546875 -17.9375 9.671875 -17.9375 Z M 11.640625 -17.9375 "/></g></g></g><g fill="#d32f23" fill-opacity="0.4196"><g transform="translate(171.99346, 259.831625)"><g><path d="M 9.53125 0.359375 C 7.070312 0.359375 5.132812 -0.316406 3.71875 -1.671875 C 2.300781 -3.023438 1.59375 -4.867188 1.59375 -7.203125 C 1.59375 -7.515625 1.625 -8.003906 1.6875 -8.671875 L 3.46875 -23.265625 C 3.800781 -26.003906 4.878906 -28.191406 6.703125 -29.828125 C 8.523438 -31.472656 10.789062 -32.296875 13.5 -32.296875 C 15.96875 -32.296875 17.914062 -31.617188 19.34375 -30.265625 C 20.769531 -28.910156 21.484375 -27.066406 21.484375 -24.734375 C 21.484375 -24.421875 21.453125 -23.929688 21.390625 -23.265625 L 19.625 -8.671875 C 19.28125 -5.929688 18.1875 -3.738281 16.34375 -2.09375 C 14.507812 -0.457031 12.238281 0.359375 9.53125 0.359375 Z M 10.171875 -5.15625 C 11.023438 -5.15625 11.734375 -5.453125 12.296875 -6.046875 C 12.859375 -6.640625 13.203125 -7.421875 13.328125 -8.390625 L 15.1875 -23.546875 C 15.21875 -23.660156 15.234375 -23.84375 15.234375 -24.09375 C 15.234375 -24.914062 15.019531 -25.566406 14.59375 -26.046875 C 14.175781 -26.535156 13.597656 -26.78125 12.859375 -26.78125 C 12.046875 -26.78125 11.359375 -26.484375 10.796875 -25.890625 C 10.234375 -25.296875 9.890625 -24.515625 9.765625 -23.546875 L 7.890625 -8.390625 C 7.859375 -8.273438 7.84375 -8.09375 7.84375 -7.84375 C 7.84375 -7.019531 8.054688 -6.363281 8.484375 -5.875 C 8.910156 -5.394531 9.472656 -5.15625 10.171875 -5.15625 Z M 10.171875 -5.15625 "/></g></g></g><g fill="#d32f23" fill-opacity="0.4196"><g transform="translate(192.887944, 259.831625)"><g><path d="M 19.109375 -31.578125 C 19.234375 -31.816406 19.460938 -31.9375 19.796875 -31.9375 L 24.953125 -31.9375 C 25.109375 -31.9375 25.226562 -31.882812 25.3125 -31.78125 C 25.40625 -31.675781 25.4375 -31.546875 25.40625 -31.390625 L 21.625 -0.546875 C 21.59375 -0.390625 21.523438 -0.257812 21.421875 -0.15625 C 21.316406 -0.0507812 21.1875 0 21.03125 0 L 15.828125 0 C 15.679688 0 15.5625 -0.0507812 15.46875 -0.15625 C 15.375 -0.257812 15.34375 -0.390625 15.375 -0.546875 L 17.890625 -21.03125 C 17.921875 -21.15625 17.90625 -21.21875 17.84375 -21.21875 C 17.78125 -21.21875 17.71875 -21.171875 17.65625 -21.078125 L 13.40625 -14.78125 C 13.226562 -14.539062 13.09375 -14.421875 13 -14.421875 C 12.9375 -14.421875 12.832031 -14.539062 12.6875 -14.78125 L 10.03125 -21.078125 C 9.976562 -21.171875 9.921875 -21.21875 9.859375 -21.21875 C 9.796875 -21.21875 9.765625 -21.15625 9.765625 -21.03125 L 7.25 -0.546875 C 7.21875 -0.390625 7.148438 -0.257812 7.046875 -0.15625 C 6.941406 -0.0507812 6.8125 0 6.65625 0 L 1.453125 0 C 1.304688 0 1.1875 -0.0507812 1.09375 -0.15625 C 1 -0.257812 0.96875 -0.390625 1 -0.546875 L 4.796875 -31.390625 C 4.828125 -31.546875 4.894531 -31.675781 5 -31.78125 C 5.101562 -31.882812 5.234375 -31.9375 5.390625 -31.9375 L 10.5 -31.9375 C 10.613281 -31.9375 10.734375 -31.90625 10.859375 -31.84375 C 10.984375 -31.78125 11.0625 -31.691406 11.09375 -31.578125 L 14.140625 -24.3125 C 14.203125 -24.195312 14.296875 -24.195312 14.421875 -24.3125 Z M 19.109375 -31.578125 "/></g></g></g><g fill="#d32f23" fill-opacity="0.4196"><g transform="translate(217.112773, 259.831625)"><g><path d="M 9.53125 0.359375 C 7.070312 0.359375 5.132812 -0.316406 3.71875 -1.671875 C 2.300781 -3.023438 1.59375 -4.867188 1.59375 -7.203125 C 1.59375 -7.515625 1.625 -8.003906 1.6875 -8.671875 L 3.46875 -23.265625 C 3.800781 -26.003906 4.878906 -28.191406 6.703125 -29.828125 C 8.523438 -31.472656 10.789062 -32.296875 13.5 -32.296875 C 15.96875 -32.296875 17.914062 -31.617188 19.34375 -30.265625 C 20.769531 -28.910156 21.484375 -27.066406 21.484375 -24.734375 C 21.484375 -24.421875 21.453125 -23.929688 21.390625 -23.265625 L 19.625 -8.671875 C 19.28125 -5.929688 18.1875 -3.738281 16.34375 -2.09375 C 14.507812 -0.457031 12.238281 0.359375 9.53125 0.359375 Z M 10.171875 -5.15625 C 11.023438 -5.15625 11.734375 -5.453125 12.296875 -6.046875 C 12.859375 -6.640625 13.203125 -7.421875 13.328125 -8.390625 L 15.1875 -23.546875 C 15.21875 -23.660156 15.234375 -23.84375 15.234375 -24.09375 C 15.234375 -24.914062 15.019531 -25.566406 14.59375 -26.046875 C 14.175781 -26.535156 13.597656 -26.78125 12.859375 -26.78125 C 12.046875 -26.78125 11.359375 -26.484375 10.796875 -25.890625 C 10.234375 -25.296875 9.890625 -24.515625 9.765625 -23.546875 L 7.890625 -8.390625 C 7.859375 -8.273438 7.84375 -8.09375 7.84375 -7.84375 C 7.84375 -7.019531 8.054688 -6.363281 8.484375 -5.875 C 8.910156 -5.394531 9.472656 -5.15625 10.171875 -5.15625 Z M 10.171875 -5.15625 "/></g></g></g><g fill="#e5f1f9" fill-opacity="1"><g transform="translate(150.061906, 258.610296)"><g><path d="M 14.421875 -31.984375 C 16.640625 -31.984375 18.394531 -31.253906 19.6875 -29.796875 C 20.976562 -28.335938 21.625 -26.40625 21.625 -24 C 21.625 -23.238281 21.59375 -22.660156 21.53125 -22.265625 C 21.195312 -19.429688 20.1875 -17.160156 18.5 -15.453125 C 16.8125 -13.753906 14.765625 -12.90625 12.359375 -12.90625 L 9.078125 -12.90625 C 8.953125 -12.90625 8.863281 -12.832031 8.8125 -12.6875 L 7.34375 -0.546875 C 7.3125 -0.390625 7.234375 -0.257812 7.109375 -0.15625 C 6.992188 -0.0507812 6.859375 0 6.703125 0 L 1.546875 0 C 1.398438 0 1.28125 -0.0507812 1.1875 -0.15625 C 1.09375 -0.257812 1.0625 -0.390625 1.09375 -0.546875 L 4.875 -31.4375 C 4.90625 -31.582031 4.972656 -31.707031 5.078125 -31.8125 C 5.191406 -31.925781 5.320312 -31.984375 5.46875 -31.984375 Z M 11.640625 -17.9375 C 12.703125 -17.9375 13.582031 -18.390625 14.28125 -19.296875 C 14.976562 -20.210938 15.328125 -21.460938 15.328125 -23.046875 C 15.328125 -24.109375 15.09375 -24.9375 14.625 -25.53125 C 14.15625 -26.125 13.507812 -26.421875 12.6875 -26.421875 L 10.71875 -26.421875 C 10.570312 -26.421875 10.5 -26.34375 10.5 -26.1875 L 9.484375 -18.15625 C 9.484375 -18.007812 9.546875 -17.9375 9.671875 -17.9375 Z M 11.640625 -17.9375 "/></g></g></g><g fill="#e5f1f9" fill-opacity="1"><g transform="translate(170.637042, 258.610296)"><g><path d="M 9.53125 0.359375 C 7.070312 0.359375 5.132812 -0.316406 3.71875 -1.671875 C 2.300781 -3.023438 1.59375 -4.867188 1.59375 -7.203125 C 1.59375 -7.515625 1.625 -8.003906 1.6875 -8.671875 L 3.46875 -23.265625 C 3.800781 -26.003906 4.878906 -28.191406 6.703125 -29.828125 C 8.523438 -31.472656 10.789062 -32.296875 13.5 -32.296875 C 15.96875 -32.296875 17.914062 -31.617188 19.34375 -30.265625 C 20.769531 -28.910156 21.484375 -27.066406 21.484375 -24.734375 C 21.484375 -24.421875 21.453125 -23.929688 21.390625 -23.265625 L 19.625 -8.671875 C 19.28125 -5.929688 18.1875 -3.738281 16.34375 -2.09375 C 14.507812 -0.457031 12.238281 0.359375 9.53125 0.359375 Z M 10.171875 -5.15625 C 11.023438 -5.15625 11.734375 -5.453125 12.296875 -6.046875 C 12.859375 -6.640625 13.203125 -7.421875 13.328125 -8.390625 L 15.1875 -23.546875 C 15.21875 -23.660156 15.234375 -23.84375 15.234375 -24.09375 C 15.234375 -24.914062 15.019531 -25.566406 14.59375 -26.046875 C 14.175781 -26.535156 13.597656 -26.78125 12.859375 -26.78125 C 12.046875 -26.78125 11.359375 -26.484375 10.796875 -25.890625 C 10.234375 -25.296875 9.890625 -24.515625 9.765625 -23.546875 L 7.890625 -8.390625 C 7.859375 -8.273438 7.84375 -8.09375 7.84375 -7.84375 C 7.84375 -7.019531 8.054688 -6.363281 8.484375 -5.875 C 8.910156 -5.394531 9.472656 -5.15625 10.171875 -5.15625 Z M 10.171875 -5.15625 "/></g></g></g><g fill="#e5f1f9" fill-opacity="1"><g transform="translate(191.531526, 258.610296)"><g><path d="M 19.109375 -31.578125 C 19.234375 -31.816406 19.460938 -31.9375 19.796875 -31.9375 L 24.953125 -31.9375 C 25.109375 -31.9375 25.226562 -31.882812 25.3125 -31.78125 C 25.40625 -31.675781 25.4375 -31.546875 25.40625 -31.390625 L 21.625 -0.546875 C 21.59375 -0.390625 21.523438 -0.257812 21.421875 -0.15625 C 21.316406 -0.0507812 21.1875 0 21.03125 0 L 15.828125 0 C 15.679688 0 15.5625 -0.0507812 15.46875 -0.15625 C 15.375 -0.257812 15.34375 -0.390625 15.375 -0.546875 L 17.890625 -21.03125 C 17.921875 -21.15625 17.90625 -21.21875 17.84375 -21.21875 C 17.78125 -21.21875 17.71875 -21.171875 17.65625 -21.078125 L 13.40625 -14.78125 C 13.226562 -14.539062 13.09375 -14.421875 13 -14.421875 C 12.9375 -14.421875 12.832031 -14.539062 12.6875 -14.78125 L 10.03125 -21.078125 C 9.976562 -21.171875 9.921875 -21.21875 9.859375 -21.21875 C 9.796875 -21.21875 9.765625 -21.15625 9.765625 -21.03125 L 7.25 -0.546875 C 7.21875 -0.390625 7.148438 -0.257812 7.046875 -0.15625 C 6.941406 -0.0507812 6.8125 0 6.65625 0 L 1.453125 0 C 1.304688 0 1.1875 -0.0507812 1.09375 -0.15625 C 1 -0.257812 0.96875 -0.390625 1 -0.546875 L 4.796875 -31.390625 C 4.828125 -31.546875 4.894531 -31.675781 5 -31.78125 C 5.101562 -31.882812 5.234375 -31.9375 5.390625 -31.9375 L 10.5 -31.9375 C 10.613281 -31.9375 10.734375 -31.90625 10.859375 -31.84375 C 10.984375 -31.78125 11.0625 -31.691406 11.09375 -31.578125 L 14.140625 -24.3125 C 14.203125 -24.195312 14.296875 -24.195312 14.421875 -24.3125 Z M 19.109375 -31.578125 "/></g></g></g><g fill="#e5f1f9" fill-opacity="1"><g transform="translate(215.756355, 258.610296)"><g><path d="M 9.53125 0.359375 C 7.070312 0.359375 5.132812 -0.316406 3.71875 -1.671875 C 2.300781 -3.023438 1.59375 -4.867188 1.59375 -7.203125 C 1.59375 -7.515625 1.625 -8.003906 1.6875 -8.671875 L 3.46875 -23.265625 C 3.800781 -26.003906 4.878906 -28.191406 6.703125 -29.828125 C 8.523438 -31.472656 10.789062 -32.296875 13.5 -32.296875 C 15.96875 -32.296875 17.914062 -31.617188 19.34375 -30.265625 C 20.769531 -28.910156 21.484375 -27.066406 21.484375 -24.734375 C 21.484375 -24.421875 21.453125 -23.929688 21.390625 -23.265625 L 19.625 -8.671875 C 19.28125 -5.929688 18.1875 -3.738281 16.34375 -2.09375 C 14.507812 -0.457031 12.238281 0.359375 9.53125 0.359375 Z M 10.171875 -5.15625 C 11.023438 -5.15625 11.734375 -5.453125 12.296875 -6.046875 C 12.859375 -6.640625 13.203125 -7.421875 13.328125 -8.390625 L 15.1875 -23.546875 C 15.21875 -23.660156 15.234375 -23.84375 15.234375 -24.09375 C 15.234375 -24.914062 15.019531 -25.566406 14.59375 -26.046875 C 14.175781 -26.535156 13.597656 -26.78125 12.859375 -26.78125 C 12.046875 -26.78125 11.359375 -26.484375 10.796875 -25.890625 C 10.234375 -25.296875 9.890625 -24.515625 9.765625 -23.546875 L 7.890625 -8.390625 C 7.859375 -8.273438 7.84375 -8.09375 7.84375 -7.84375 C 7.84375 -7.019531 8.054688 -6.363281 8.484375 -5.875 C 8.910156 -5.394531 9.472656 -5.15625 10.171875 -5.15625 Z M 10.171875 -5.15625 "/></g></g></g><g fill="#d32f23" fill-opacity="0.4196"><g transform="translate(84.351921, 295.831622)"><g><path d="M 9.71875 0.359375 C 7.101562 0.359375 5.035156 -0.382812 3.515625 -1.875 C 1.992188 -3.363281 1.234375 -5.367188 1.234375 -7.890625 C 1.234375 -8.222656 1.265625 -8.753906 1.328125 -9.484375 L 4.015625 -31.25 C 4.046875 -31.46875 4.128906 -31.632812 4.265625 -31.75 C 4.398438 -31.875 4.5625 -31.9375 4.75 -31.9375 L 11.765625 -31.9375 C 11.953125 -31.9375 12.097656 -31.875 12.203125 -31.75 C 12.304688 -31.632812 12.34375 -31.46875 12.3125 -31.25 L 9.578125 -8.671875 C 9.515625 -8.148438 9.570312 -7.738281 9.75 -7.4375 C 9.9375 -7.132812 10.226562 -6.984375 10.625 -6.984375 C 11.019531 -6.984375 11.347656 -7.132812 11.609375 -7.4375 C 11.867188 -7.738281 12.03125 -8.148438 12.09375 -8.671875 L 14.875 -31.25 C 14.90625 -31.46875 14.976562 -31.632812 15.09375 -31.75 C 15.21875 -31.875 15.390625 -31.9375 15.609375 -31.9375 L 22.578125 -31.9375 C 22.796875 -31.9375 22.957031 -31.875 23.0625 -31.75 C 23.164062 -31.632812 23.203125 -31.46875 23.171875 -31.25 L 20.484375 -9.484375 C 20.242188 -7.535156 19.632812 -5.816406 18.65625 -4.328125 C 17.6875 -2.835938 16.425781 -1.679688 14.875 -0.859375 C 13.320312 -0.046875 11.601562 0.359375 9.71875 0.359375 Z M 9.71875 0.359375 "/></g></g></g><g fill="#d32f23" fill-opacity="0.4196"><g transform="translate(105.656997, 295.831622)"><g><path d="M 9.484375 0.359375 C 6.867188 0.359375 4.800781 -0.316406 3.28125 -1.671875 C 1.757812 -3.023438 1 -4.828125 1 -7.078125 C 1 -7.285156 1.03125 -7.664062 1.09375 -8.21875 L 1.28125 -9.625 C 1.3125 -9.84375 1.394531 -10.007812 1.53125 -10.125 C 1.664062 -10.25 1.820312 -10.3125 2 -10.3125 L 8.9375 -10.3125 C 9.125 -10.3125 9.269531 -10.25 9.375 -10.125 C 9.476562 -10.007812 9.515625 -9.84375 9.484375 -9.625 L 9.40625 -8.625 C 9.34375 -8.132812 9.398438 -7.738281 9.578125 -7.4375 C 9.765625 -7.132812 10.039062 -6.984375 10.40625 -6.984375 C 10.800781 -6.984375 11.132812 -7.148438 11.40625 -7.484375 C 11.675781 -7.816406 11.8125 -8.226562 11.8125 -8.71875 C 11.8125 -9.175781 11.59375 -9.644531 11.15625 -10.125 C 10.71875 -10.613281 9.875 -11.359375 8.625 -12.359375 C 7.40625 -13.367188 6.398438 -14.257812 5.609375 -15.03125 C 4.816406 -15.8125 4.128906 -16.769531 3.546875 -17.90625 C 2.972656 -19.050781 2.6875 -20.351562 2.6875 -21.8125 C 2.6875 -22.082031 2.71875 -22.550781 2.78125 -23.21875 C 3.113281 -25.925781 4.238281 -28.113281 6.15625 -29.78125 C 8.070312 -31.457031 10.460938 -32.296875 13.328125 -32.296875 C 15.941406 -32.296875 18 -31.597656 19.5 -30.203125 C 21.007812 -28.804688 21.765625 -26.921875 21.765625 -24.546875 C 21.765625 -24.273438 21.734375 -23.832031 21.671875 -23.21875 L 21.53125 -22.21875 C 21.5 -22.007812 21.414062 -21.84375 21.28125 -21.71875 C 21.144531 -21.59375 20.988281 -21.53125 20.8125 -21.53125 L 13.921875 -21.53125 C 13.734375 -21.53125 13.585938 -21.59375 13.484375 -21.71875 C 13.378906 -21.84375 13.34375 -22.007812 13.375 -22.21875 L 13.5 -23.40625 C 13.53125 -23.863281 13.445312 -24.234375 13.25 -24.515625 C 13.050781 -24.804688 12.769531 -24.953125 12.40625 -24.953125 C 11.976562 -24.953125 11.628906 -24.769531 11.359375 -24.40625 C 11.085938 -24.039062 10.953125 -23.554688 10.953125 -22.953125 C 10.953125 -22.429688 11.164062 -21.894531 11.59375 -21.34375 C 12.019531 -20.800781 12.8125 -20.046875 13.96875 -19.078125 C 15.507812 -17.765625 16.691406 -16.703125 17.515625 -15.890625 C 18.335938 -15.085938 18.984375 -14.207031 19.453125 -13.25 C 19.929688 -12.289062 20.171875 -11.203125 20.171875 -9.984375 C 20.171875 -9.742188 20.140625 -9.320312 20.078125 -8.71875 C 19.710938 -5.945312 18.5625 -3.738281 16.625 -2.09375 C 14.695312 -0.457031 12.316406 0.359375 9.484375 0.359375 Z M 9.484375 0.359375 "/></g></g></g><g fill="#d32f23" fill-opacity="0.4196"><g transform="translate(126.14089, 295.831622)"><g><path d="M 21.078125 -25.28125 C 21.046875 -25.0625 20.960938 -24.890625 20.828125 -24.765625 C 20.691406 -24.648438 20.515625 -24.59375 20.296875 -24.59375 L 11.8125 -24.59375 C 11.664062 -24.59375 11.59375 -24.515625 11.59375 -24.359375 L 11.046875 -19.890625 C 10.984375 -19.742188 11.039062 -19.671875 11.21875 -19.671875 L 15.65625 -19.671875 C 15.863281 -19.671875 16.019531 -19.609375 16.125 -19.484375 C 16.226562 -19.359375 16.269531 -19.191406 16.25 -18.984375 L 15.515625 -13 C 15.421875 -12.539062 15.160156 -12.3125 14.734375 -12.3125 L 10.3125 -12.3125 C 10.15625 -12.3125 10.078125 -12.238281 10.078125 -12.09375 L 9.53125 -7.578125 C 9.46875 -7.421875 9.53125 -7.34375 9.71875 -7.34375 L 18.203125 -7.34375 C 18.421875 -7.34375 18.582031 -7.28125 18.6875 -7.15625 C 18.789062 -7.039062 18.828125 -6.875 18.796875 -6.65625 L 18.0625 -0.6875 C 18.03125 -0.46875 17.945312 -0.296875 17.8125 -0.171875 C 17.675781 -0.0546875 17.503906 0 17.296875 0 L 0.90625 0 C 0.726562 0 0.582031 -0.0546875 0.46875 -0.171875 C 0.363281 -0.296875 0.328125 -0.46875 0.359375 -0.6875 L 4.109375 -31.25 C 4.140625 -31.46875 4.222656 -31.632812 4.359375 -31.75 C 4.492188 -31.875 4.65625 -31.9375 4.84375 -31.9375 L 21.21875 -31.9375 C 21.425781 -31.9375 21.582031 -31.875 21.6875 -31.75 C 21.800781 -31.632812 21.84375 -31.46875 21.8125 -31.25 Z M 21.078125 -25.28125 "/></g></g></g><g fill="#d32f23" fill-opacity="0.4196"><g transform="translate(145.803612, 295.831622)"><g><path d="M 21.078125 -25.28125 C 21.046875 -25.0625 20.960938 -24.890625 20.828125 -24.765625 C 20.691406 -24.648438 20.515625 -24.59375 20.296875 -24.59375 L 11.8125 -24.59375 C 11.664062 -24.59375 11.59375 -24.515625 11.59375 -24.359375 L 11.046875 -19.890625 C 10.984375 -19.742188 11.039062 -19.671875 11.21875 -19.671875 L 15.65625 -19.671875 C 15.863281 -19.671875 16.019531 -19.609375 16.125 -19.484375 C 16.226562 -19.359375 16.269531 -19.191406 16.25 -18.984375 L 15.515625 -13 C 15.421875 -12.539062 15.160156 -12.3125 14.734375 -12.3125 L 10.3125 -12.3125 C 10.15625 -12.3125 10.078125 -12.238281 10.078125 -12.09375 L 8.671875 -0.6875 C 8.640625 -0.46875 8.554688 -0.296875 8.421875 -0.171875 C 8.285156 -0.0546875 8.125 0 7.9375 0 L 0.90625 0 C 0.726562 0 0.582031 -0.0546875 0.46875 -0.171875 C 0.363281 -0.296875 0.328125 -0.46875 0.359375 -0.6875 L 4.109375 -31.25 C 4.140625 -31.46875 4.222656 -31.632812 4.359375 -31.75 C 4.492188 -31.875 4.65625 -31.9375 4.84375 -31.9375 L 21.21875 -31.9375 C 21.425781 -31.9375 21.582031 -31.875 21.6875 -31.75 C 21.800781 -31.632812 21.84375 -31.46875 21.8125 -31.25 Z M 21.078125 -25.28125 "/></g></g></g><g fill="#d32f23" fill-opacity="0.4196"><g transform="translate(164.918872, 295.831622)"><g><path d="M 9.71875 0.359375 C 7.101562 0.359375 5.035156 -0.382812 3.515625 -1.875 C 1.992188 -3.363281 1.234375 -5.367188 1.234375 -7.890625 C 1.234375 -8.222656 1.265625 -8.753906 1.328125 -9.484375 L 4.015625 -31.25 C 4.046875 -31.46875 4.128906 -31.632812 4.265625 -31.75 C 4.398438 -31.875 4.5625 -31.9375 4.75 -31.9375 L 11.765625 -31.9375 C 11.953125 -31.9375 12.097656 -31.875 12.203125 -31.75 C 12.304688 -31.632812 12.34375 -31.46875 12.3125 -31.25 L 9.578125 -8.671875 C 9.515625 -8.148438 9.570312 -7.738281 9.75 -7.4375 C 9.9375 -7.132812 10.226562 -6.984375 10.625 -6.984375 C 11.019531 -6.984375 11.347656 -7.132812 11.609375 -7.4375 C 11.867188 -7.738281 12.03125 -8.148438 12.09375 -8.671875 L 14.875 -31.25 C 14.90625 -31.46875 14.976562 -31.632812 15.09375 -31.75 C 15.21875 -31.875 15.390625 -31.9375 15.609375 -31.9375 L 22.578125 -31.9375 C 22.796875 -31.9375 22.957031 -31.875 23.0625 -31.75 C 23.164062 -31.632812 23.203125 -31.46875 23.171875 -31.25 L 20.484375 -9.484375 C 20.242188 -7.535156 19.632812 -5.816406 18.65625 -4.328125 C 17.6875 -2.835938 16.425781 -1.679688 14.875 -0.859375 C 13.320312 -0.046875 11.601562 0.359375 9.71875 0.359375 Z M 9.71875 0.359375 "/></g></g></g><g fill="#d32f23" fill-opacity="0.4196"><g transform="translate(186.223947, 295.831622)"><g><path d="M 0.90625 0 C 0.726562 0 0.582031 -0.0546875 0.46875 -0.171875 C 0.363281 -0.296875 0.328125 -0.46875 0.359375 -0.6875 L 4.109375 -31.25 C 4.140625 -31.46875 4.222656 -31.632812 4.359375 -31.75 C 4.492188 -31.875 4.65625 -31.9375 4.84375 -31.9375 L 11.859375 -31.9375 C 12.046875 -31.9375 12.191406 -31.875 12.296875 -31.75 C 12.398438 -31.632812 12.4375 -31.46875 12.40625 -31.25 L 9.53125 -7.578125 C 9.46875 -7.421875 9.53125 -7.34375 9.71875 -7.34375 L 18.390625 -7.34375 C 18.597656 -7.34375 18.753906 -7.28125 18.859375 -7.15625 C 18.972656 -7.039062 19.015625 -6.875 18.984375 -6.65625 L 18.25 -0.6875 C 18.15625 -0.226562 17.894531 0 17.46875 0 Z M 0.90625 0 "/></g></g></g><g fill="#d32f23" fill-opacity="0.4196"><g transform="translate(205.977902, 295.831622)"><g><path d="M 23.671875 -31.9375 C 23.859375 -31.9375 24.003906 -31.875 24.109375 -31.75 C 24.210938 -31.632812 24.253906 -31.46875 24.234375 -31.25 L 23.5 -25.28125 C 23.46875 -25.0625 23.390625 -24.890625 23.265625 -24.765625 C 23.148438 -24.648438 22.984375 -24.59375 22.765625 -24.59375 L 17.46875 -24.59375 C 17.320312 -24.59375 17.25 -24.515625 17.25 -24.359375 L 14.328125 -0.6875 C 14.296875 -0.46875 14.21875 -0.296875 14.09375 -0.171875 C 13.976562 -0.0546875 13.8125 0 13.59375 0 L 6.609375 0 C 6.398438 0 6.242188 -0.0546875 6.140625 -0.171875 C 6.035156 -0.296875 5.992188 -0.46875 6.015625 -0.6875 L 8.9375 -24.359375 C 8.9375 -24.515625 8.863281 -24.59375 8.71875 -24.59375 L 3.609375 -24.59375 C 3.390625 -24.59375 3.226562 -24.648438 3.125 -24.765625 C 3.019531 -24.890625 2.984375 -25.0625 3.015625 -25.28125 L 3.734375 -31.25 C 3.765625 -31.46875 3.847656 -31.632812 3.984375 -31.75 C 4.128906 -31.875 4.304688 -31.9375 4.515625 -31.9375 Z M 23.671875 -31.9375 "/></g></g></g><g fill="#d32f23" fill-opacity="0.4196"><g transform="translate(228.058543, 295.831622)"><g><path d="M 0.90625 0 C 0.726562 0 0.582031 -0.0546875 0.46875 -0.171875 C 0.363281 -0.296875 0.328125 -0.46875 0.359375 -0.6875 L 4.109375 -31.25 C 4.140625 -31.46875 4.222656 -31.632812 4.359375 -31.75 C 4.492188 -31.875 4.65625 -31.9375 4.84375 -31.9375 L 11.859375 -31.9375 C 12.046875 -31.9375 12.191406 -31.875 12.296875 -31.75 C 12.398438 -31.632812 12.4375 -31.46875 12.40625 -31.25 L 8.671875 -0.6875 C 8.640625 -0.46875 8.554688 -0.296875 8.421875 -0.171875 C 8.285156 -0.0546875 8.125 0 7.9375 0 Z M 0.90625 0 "/></g></g></g><g fill="#d32f23" fill-opacity="0.4196"><g transform="translate(238.688273, 295.831622)"><g><path d="M 18.75 -31.4375 C 18.9375 -31.769531 19.210938 -31.9375 19.578125 -31.9375 L 26.515625 -31.9375 C 26.691406 -31.9375 26.832031 -31.875 26.9375 -31.75 C 27.039062 -31.632812 27.082031 -31.46875 27.0625 -31.25 L 23.3125 -0.6875 C 23.28125 -0.46875 23.195312 -0.296875 23.0625 -0.171875 C 22.925781 -0.0546875 22.765625 0 22.578125 0 L 15.5625 0 C 15.375 0 15.226562 -0.0546875 15.125 -0.171875 C 15.019531 -0.296875 14.984375 -0.46875 15.015625 -0.6875 L 17.296875 -19.34375 C 17.328125 -19.46875 17.300781 -19.535156 17.21875 -19.546875 C 17.144531 -19.566406 17.078125 -19.53125 17.015625 -19.4375 L 13.921875 -14.96875 L 13.375 -14.140625 L 13.328125 -14.140625 L 11 -19.4375 C 10.96875 -19.53125 10.921875 -19.566406 10.859375 -19.546875 C 10.796875 -19.535156 10.75 -19.46875 10.71875 -19.34375 L 8.4375 -0.6875 C 8.40625 -0.46875 8.328125 -0.296875 8.203125 -0.171875 C 8.085938 -0.0546875 7.921875 0 7.703125 0 L 0.734375 0 C 0.515625 0 0.351562 -0.0546875 0.25 -0.171875 C 0.144531 -0.296875 0.109375 -0.46875 0.140625 -0.6875 L 3.875 -31.25 C 3.90625 -31.46875 3.988281 -31.632812 4.125 -31.75 C 4.257812 -31.875 4.421875 -31.9375 4.609375 -31.9375 L 11.546875 -31.9375 C 11.910156 -31.9375 12.148438 -31.769531 12.265625 -31.4375 L 14.6875 -25.5 C 14.75 -25.382812 14.84375 -25.382812 14.96875 -25.5 Z M 18.75 -31.4375 "/></g></g></g><g fill="#d32f23" fill-opacity="0.4196"><g transform="translate(263.734284, 295.831622)"><g><path d="M 21.078125 -25.28125 C 21.046875 -25.0625 20.960938 -24.890625 20.828125 -24.765625 C 20.691406 -24.648438 20.515625 -24.59375 20.296875 -24.59375 L 11.8125 -24.59375 C 11.664062 -24.59375 11.59375 -24.515625 11.59375 -24.359375 L 11.046875 -19.890625 C 10.984375 -19.742188 11.039062 -19.671875 11.21875 -19.671875 L 15.65625 -19.671875 C 15.863281 -19.671875 16.019531 -19.609375 16.125 -19.484375 C 16.226562 -19.359375 16.269531 -19.191406 16.25 -18.984375 L 15.515625 -13 C 15.421875 -12.539062 15.160156 -12.3125 14.734375 -12.3125 L 10.3125 -12.3125 C 10.15625 -12.3125 10.078125 -12.238281 10.078125 -12.09375 L 9.53125 -7.578125 C 9.46875 -7.421875 9.53125 -7.34375 9.71875 -7.34375 L 18.203125 -7.34375 C 18.421875 -7.34375 18.582031 -7.28125 18.6875 -7.15625 C 18.789062 -7.039062 18.828125 -6.875 18.796875 -6.65625 L 18.0625 -0.6875 C 18.03125 -0.46875 17.945312 -0.296875 17.8125 -0.171875 C 17.675781 -0.0546875 17.503906 0 17.296875 0 L 0.90625 0 C 0.726562 0 0.582031 -0.0546875 0.46875 -0.171875 C 0.363281 -0.296875 0.328125 -0.46875 0.359375 -0.6875 L 4.109375 -31.25 C 4.140625 -31.46875 4.222656 -31.632812 4.359375 -31.75 C 4.492188 -31.875 4.65625 -31.9375 4.84375 -31.9375 L 21.21875 -31.9375 C 21.425781 -31.9375 21.582031 -31.875 21.6875 -31.75 C 21.800781 -31.632812 21.84375 -31.46875 21.8125 -31.25 Z M 21.078125 -25.28125 "/></g></g></g><g fill="#d32f23" fill-opacity="0.4196"><g transform="translate(283.397007, 295.831622)"><g><path d="M 12.359375 0 C 11.992188 0 11.78125 -0.195312 11.71875 -0.59375 L 10.40625 -12.09375 C 10.40625 -12.207031 10.359375 -12.265625 10.265625 -12.265625 C 10.140625 -12.265625 10.078125 -12.191406 10.078125 -12.046875 L 8.671875 -0.6875 C 8.640625 -0.46875 8.554688 -0.296875 8.421875 -0.171875 C 8.285156 -0.0546875 8.125 0 7.9375 0 L 0.90625 0 C 0.726562 0 0.582031 -0.0546875 0.46875 -0.171875 C 0.363281 -0.296875 0.328125 -0.46875 0.359375 -0.6875 L 4.109375 -31.25 C 4.140625 -31.46875 4.222656 -31.632812 4.359375 -31.75 C 4.492188 -31.875 4.65625 -31.9375 4.84375 -31.9375 L 14.828125 -31.9375 C 17.265625 -31.9375 19.1875 -31.160156 20.59375 -29.609375 C 22.007812 -28.054688 22.71875 -26.003906 22.71875 -23.453125 C 22.71875 -22.722656 22.6875 -22.160156 22.625 -21.765625 C 22.414062 -20.085938 21.945312 -18.585938 21.21875 -17.265625 C 20.488281 -15.941406 19.546875 -14.867188 18.390625 -14.046875 C 18.234375 -13.960938 18.1875 -13.859375 18.25 -13.734375 L 20.21875 -0.78125 L 20.21875 -0.59375 C 20.21875 -0.40625 20.15625 -0.257812 20.03125 -0.15625 C 19.90625 -0.0507812 19.753906 0 19.578125 0 Z M 11.8125 -24.59375 C 11.664062 -24.59375 11.59375 -24.515625 11.59375 -24.359375 L 10.90625 -19.03125 C 10.90625 -18.875 10.976562 -18.796875 11.125 -18.796875 L 11.71875 -18.796875 C 12.457031 -18.796875 13.078125 -19.113281 13.578125 -19.75 C 14.078125 -20.394531 14.328125 -21.28125 14.328125 -22.40625 C 14.328125 -23.101562 14.160156 -23.640625 13.828125 -24.015625 C 13.492188 -24.398438 13.035156 -24.59375 12.453125 -24.59375 Z M 11.8125 -24.59375 "/></g></g></g><g fill="#e5f1f9" fill-opacity="1"><g transform="translate(82.995504, 294.610293)"><g><path d="M 9.71875 0.359375 C 7.101562 0.359375 5.035156 -0.382812 3.515625 -1.875 C 1.992188 -3.363281 1.234375 -5.367188 1.234375 -7.890625 C 1.234375 -8.222656 1.265625 -8.753906 1.328125 -9.484375 L 4.015625 -31.25 C 4.046875 -31.46875 4.128906 -31.632812 4.265625 -31.75 C 4.398438 -31.875 4.5625 -31.9375 4.75 -31.9375 L 11.765625 -31.9375 C 11.953125 -31.9375 12.097656 -31.875 12.203125 -31.75 C 12.304688 -31.632812 12.34375 -31.46875 12.3125 -31.25 L 9.578125 -8.671875 C 9.515625 -8.148438 9.570312 -7.738281 9.75 -7.4375 C 9.9375 -7.132812 10.226562 -6.984375 10.625 -6.984375 C 11.019531 -6.984375 11.347656 -7.132812 11.609375 -7.4375 C 11.867188 -7.738281 12.03125 -8.148438 12.09375 -8.671875 L 14.875 -31.25 C 14.90625 -31.46875 14.976562 -31.632812 15.09375 -31.75 C 15.21875 -31.875 15.390625 -31.9375 15.609375 -31.9375 L 22.578125 -31.9375 C 22.796875 -31.9375 22.957031 -31.875 23.0625 -31.75 C 23.164062 -31.632812 23.203125 -31.46875 23.171875 -31.25 L 20.484375 -9.484375 C 20.242188 -7.535156 19.632812 -5.816406 18.65625 -4.328125 C 17.6875 -2.835938 16.425781 -1.679688 14.875 -0.859375 C 13.320312 -0.046875 11.601562 0.359375 9.71875 0.359375 Z M 9.71875 0.359375 "/></g></g></g><g fill="#e5f1f9" fill-opacity="1"><g transform="translate(104.300579, 294.610293)"><g><path d="M 9.484375 0.359375 C 6.867188 0.359375 4.800781 -0.316406 3.28125 -1.671875 C 1.757812 -3.023438 1 -4.828125 1 -7.078125 C 1 -7.285156 1.03125 -7.664062 1.09375 -8.21875 L 1.28125 -9.625 C 1.3125 -9.84375 1.394531 -10.007812 1.53125 -10.125 C 1.664062 -10.25 1.820312 -10.3125 2 -10.3125 L 8.9375 -10.3125 C 9.125 -10.3125 9.269531 -10.25 9.375 -10.125 C 9.476562 -10.007812 9.515625 -9.84375 9.484375 -9.625 L 9.40625 -8.625 C 9.34375 -8.132812 9.398438 -7.738281 9.578125 -7.4375 C 9.765625 -7.132812 10.039062 -6.984375 10.40625 -6.984375 C 10.800781 -6.984375 11.132812 -7.148438 11.40625 -7.484375 C 11.675781 -7.816406 11.8125 -8.226562 11.8125 -8.71875 C 11.8125 -9.175781 11.59375 -9.644531 11.15625 -10.125 C 10.71875 -10.613281 9.875 -11.359375 8.625 -12.359375 C 7.40625 -13.367188 6.398438 -14.257812 5.609375 -15.03125 C 4.816406 -15.8125 4.128906 -16.769531 3.546875 -17.90625 C 2.972656 -19.050781 2.6875 -20.351562 2.6875 -21.8125 C 2.6875 -22.082031 2.71875 -22.550781 2.78125 -23.21875 C 3.113281 -25.925781 4.238281 -28.113281 6.15625 -29.78125 C 8.070312 -31.457031 10.460938 -32.296875 13.328125 -32.296875 C 15.941406 -32.296875 18 -31.597656 19.5 -30.203125 C 21.007812 -28.804688 21.765625 -26.921875 21.765625 -24.546875 C 21.765625 -24.273438 21.734375 -23.832031 21.671875 -23.21875 L 21.53125 -22.21875 C 21.5 -22.007812 21.414062 -21.84375 21.28125 -21.71875 C 21.144531 -21.59375 20.988281 -21.53125 20.8125 -21.53125 L 13.921875 -21.53125 C 13.734375 -21.53125 13.585938 -21.59375 13.484375 -21.71875 C 13.378906 -21.84375 13.34375 -22.007812 13.375 -22.21875 L 13.5 -23.40625 C 13.53125 -23.863281 13.445312 -24.234375 13.25 -24.515625 C 13.050781 -24.804688 12.769531 -24.953125 12.40625 -24.953125 C 11.976562 -24.953125 11.628906 -24.769531 11.359375 -24.40625 C 11.085938 -24.039062 10.953125 -23.554688 10.953125 -22.953125 C 10.953125 -22.429688 11.164062 -21.894531 11.59375 -21.34375 C 12.019531 -20.800781 12.8125 -20.046875 13.96875 -19.078125 C 15.507812 -17.765625 16.691406 -16.703125 17.515625 -15.890625 C 18.335938 -15.085938 18.984375 -14.207031 19.453125 -13.25 C 19.929688 -12.289062 20.171875 -11.203125 20.171875 -9.984375 C 20.171875 -9.742188 20.140625 -9.320312 20.078125 -8.71875 C 19.710938 -5.945312 18.5625 -3.738281 16.625 -2.09375 C 14.695312 -0.457031 12.316406 0.359375 9.484375 0.359375 Z M 9.484375 0.359375 "/></g></g></g><g fill="#e5f1f9" fill-opacity="1"><g transform="translate(124.784472, 294.610293)"><g><path d="M 21.078125 -25.28125 C 21.046875 -25.0625 20.960938 -24.890625 20.828125 -24.765625 C 20.691406 -24.648438 20.515625 -24.59375 20.296875 -24.59375 L 11.8125 -24.59375 C 11.664062 -24.59375 11.59375 -24.515625 11.59375 -24.359375 L 11.046875 -19.890625 C 10.984375 -19.742188 11.039062 -19.671875 11.21875 -19.671875 L 15.65625 -19.671875 C 15.863281 -19.671875 16.019531 -19.609375 16.125 -19.484375 C 16.226562 -19.359375 16.269531 -19.191406 16.25 -18.984375 L 15.515625 -13 C 15.421875 -12.539062 15.160156 -12.3125 14.734375 -12.3125 L 10.3125 -12.3125 C 10.15625 -12.3125 10.078125 -12.238281 10.078125 -12.09375 L 9.53125 -7.578125 C 9.46875 -7.421875 9.53125 -7.34375 9.71875 -7.34375 L 18.203125 -7.34375 C 18.421875 -7.34375 18.582031 -7.28125 18.6875 -7.15625 C 18.789062 -7.039062 18.828125 -6.875 18.796875 -6.65625 L 18.0625 -0.6875 C 18.03125 -0.46875 17.945312 -0.296875 17.8125 -0.171875 C 17.675781 -0.0546875 17.503906 0 17.296875 0 L 0.90625 0 C 0.726562 0 0.582031 -0.0546875 0.46875 -0.171875 C 0.363281 -0.296875 0.328125 -0.46875 0.359375 -0.6875 L 4.109375 -31.25 C 4.140625 -31.46875 4.222656 -31.632812 4.359375 -31.75 C 4.492188 -31.875 4.65625 -31.9375 4.84375 -31.9375 L 21.21875 -31.9375 C 21.425781 -31.9375 21.582031 -31.875 21.6875 -31.75 C 21.800781 -31.632812 21.84375 -31.46875 21.8125 -31.25 Z M 21.078125 -25.28125 "/></g></g></g><g fill="#e5f1f9" fill-opacity="1"><g transform="translate(144.447195, 294.610293)"><g><path d="M 21.078125 -25.28125 C 21.046875 -25.0625 20.960938 -24.890625 20.828125 -24.765625 C 20.691406 -24.648438 20.515625 -24.59375 20.296875 -24.59375 L 11.8125 -24.59375 C 11.664062 -24.59375 11.59375 -24.515625 11.59375 -24.359375 L 11.046875 -19.890625 C 10.984375 -19.742188 11.039062 -19.671875 11.21875 -19.671875 L 15.65625 -19.671875 C 15.863281 -19.671875 16.019531 -19.609375 16.125 -19.484375 C 16.226562 -19.359375 16.269531 -19.191406 16.25 -18.984375 L 15.515625 -13 C 15.421875 -12.539062 15.160156 -12.3125 14.734375 -12.3125 L 10.3125 -12.3125 C 10.15625 -12.3125 10.078125 -12.238281 10.078125 -12.09375 L 8.671875 -0.6875 C 8.640625 -0.46875 8.554688 -0.296875 8.421875 -0.171875 C 8.285156 -0.0546875 8.125 0 7.9375 0 L 0.90625 0 C 0.726562 0 0.582031 -0.0546875 0.46875 -0.171875 C 0.363281 -0.296875 0.328125 -0.46875 0.359375 -0.6875 L 4.109375 -31.25 C 4.140625 -31.46875 4.222656 -31.632812 4.359375 -31.75 C 4.492188 -31.875 4.65625 -31.9375 4.84375 -31.9375 L 21.21875 -31.9375 C 21.425781 -31.9375 21.582031 -31.875 21.6875 -31.75 C 21.800781 -31.632812 21.84375 -31.46875 21.8125 -31.25 Z M 21.078125 -25.28125 "/></g></g></g><g fill="#e5f1f9" fill-opacity="1"><g transform="translate(163.562455, 294.610293)"><g><path d="M 9.71875 0.359375 C 7.101562 0.359375 5.035156 -0.382812 3.515625 -1.875 C 1.992188 -3.363281 1.234375 -5.367188 1.234375 -7.890625 C 1.234375 -8.222656 1.265625 -8.753906 1.328125 -9.484375 L 4.015625 -31.25 C 4.046875 -31.46875 4.128906 -31.632812 4.265625 -31.75 C 4.398438 -31.875 4.5625 -31.9375 4.75 -31.9375 L 11.765625 -31.9375 C 11.953125 -31.9375 12.097656 -31.875 12.203125 -31.75 C 12.304688 -31.632812 12.34375 -31.46875 12.3125 -31.25 L 9.578125 -8.671875 C 9.515625 -8.148438 9.570312 -7.738281 9.75 -7.4375 C 9.9375 -7.132812 10.226562 -6.984375 10.625 -6.984375 C 11.019531 -6.984375 11.347656 -7.132812 11.609375 -7.4375 C 11.867188 -7.738281 12.03125 -8.148438 12.09375 -8.671875 L 14.875 -31.25 C 14.90625 -31.46875 14.976562 -31.632812 15.09375 -31.75 C 15.21875 -31.875 15.390625 -31.9375 15.609375 -31.9375 L 22.578125 -31.9375 C 22.796875 -31.9375 22.957031 -31.875 23.0625 -31.75 C 23.164062 -31.632812 23.203125 -31.46875 23.171875 -31.25 L 20.484375 -9.484375 C 20.242188 -7.535156 19.632812 -5.816406 18.65625 -4.328125 C 17.6875 -2.835938 16.425781 -1.679688 14.875 -0.859375 C 13.320312 -0.046875 11.601562 0.359375 9.71875 0.359375 Z M 9.71875 0.359375 "/></g></g></g><g fill="#e5f1f9" fill-opacity="1"><g transform="translate(184.86753, 294.610293)"><g><path d="M 0.90625 0 C 0.726562 0 0.582031 -0.0546875 0.46875 -0.171875 C 0.363281 -0.296875 0.328125 -0.46875 0.359375 -0.6875 L 4.109375 -31.25 C 4.140625 -31.46875 4.222656 -31.632812 4.359375 -31.75 C 4.492188 -31.875 4.65625 -31.9375 4.84375 -31.9375 L 11.859375 -31.9375 C 12.046875 -31.9375 12.191406 -31.875 12.296875 -31.75 C 12.398438 -31.632812 12.4375 -31.46875 12.40625 -31.25 L 9.53125 -7.578125 C 9.46875 -7.421875 9.53125 -7.34375 9.71875 -7.34375 L 18.390625 -7.34375 C 18.597656 -7.34375 18.753906 -7.28125 18.859375 -7.15625 C 18.972656 -7.039062 19.015625 -6.875 18.984375 -6.65625 L 18.25 -0.6875 C 18.15625 -0.226562 17.894531 0 17.46875 0 Z M 0.90625 0 "/></g></g></g><g fill="#e5f1f9" fill-opacity="1"><g transform="translate(204.621485, 294.610293)"><g><path d="M 23.671875 -31.9375 C 23.859375 -31.9375 24.003906 -31.875 24.109375 -31.75 C 24.210938 -31.632812 24.253906 -31.46875 24.234375 -31.25 L 23.5 -25.28125 C 23.46875 -25.0625 23.390625 -24.890625 23.265625 -24.765625 C 23.148438 -24.648438 22.984375 -24.59375 22.765625 -24.59375 L 17.46875 -24.59375 C 17.320312 -24.59375 17.25 -24.515625 17.25 -24.359375 L 14.328125 -0.6875 C 14.296875 -0.46875 14.21875 -0.296875 14.09375 -0.171875 C 13.976562 -0.0546875 13.8125 0 13.59375 0 L 6.609375 0 C 6.398438 0 6.242188 -0.0546875 6.140625 -0.171875 C 6.035156 -0.296875 5.992188 -0.46875 6.015625 -0.6875 L 8.9375 -24.359375 C 8.9375 -24.515625 8.863281 -24.59375 8.71875 -24.59375 L 3.609375 -24.59375 C 3.390625 -24.59375 3.226562 -24.648438 3.125 -24.765625 C 3.019531 -24.890625 2.984375 -25.0625 3.015625 -25.28125 L 3.734375 -31.25 C 3.765625 -31.46875 3.847656 -31.632812 3.984375 -31.75 C 4.128906 -31.875 4.304688 -31.9375 4.515625 -31.9375 Z M 23.671875 -31.9375 "/></g></g></g><g fill="#e5f1f9" fill-opacity="1"><g transform="translate(226.702126, 294.610293)"><g><path d="M 0.90625 0 C 0.726562 0 0.582031 -0.0546875 0.46875 -0.171875 C 0.363281 -0.296875 0.328125 -0.46875 0.359375 -0.6875 L 4.109375 -31.25 C 4.140625 -31.46875 4.222656 -31.632812 4.359375 -31.75 C 4.492188 -31.875 4.65625 -31.9375 4.84375 -31.9375 L 11.859375 -31.9375 C 12.046875 -31.9375 12.191406 -31.875 12.296875 -31.75 C 12.398438 -31.632812 12.4375 -31.46875 12.40625 -31.25 L 8.671875 -0.6875 C 8.640625 -0.46875 8.554688 -0.296875 8.421875 -0.171875 C 8.285156 -0.0546875 8.125 0 7.9375 0 Z M 0.90625 0 "/></g></g></g><g fill="#e5f1f9" fill-opacity="1"><g transform="translate(237.331855, 294.610293)"><g><path d="M 18.75 -31.4375 C 18.9375 -31.769531 19.210938 -31.9375 19.578125 -31.9375 L 26.515625 -31.9375 C 26.691406 -31.9375 26.832031 -31.875 26.9375 -31.75 C 27.039062 -31.632812 27.082031 -31.46875 27.0625 -31.25 L 23.3125 -0.6875 C 23.28125 -0.46875 23.195312 -0.296875 23.0625 -0.171875 C 22.925781 -0.0546875 22.765625 0 22.578125 0 L 15.5625 0 C 15.375 0 15.226562 -0.0546875 15.125 -0.171875 C 15.019531 -0.296875 14.984375 -0.46875 15.015625 -0.6875 L 17.296875 -19.34375 C 17.328125 -19.46875 17.300781 -19.535156 17.21875 -19.546875 C 17.144531 -19.566406 17.078125 -19.53125 17.015625 -19.4375 L 13.921875 -14.96875 L 13.375 -14.140625 L 13.328125 -14.140625 L 11 -19.4375 C 10.96875 -19.53125 10.921875 -19.566406 10.859375 -19.546875 C 10.796875 -19.535156 10.75 -19.46875 10.71875 -19.34375 L 8.4375 -0.6875 C 8.40625 -0.46875 8.328125 -0.296875 8.203125 -0.171875 C 8.085938 -0.0546875 7.921875 0 7.703125 0 L 0.734375 0 C 0.515625 0 0.351562 -0.0546875 0.25 -0.171875 C 0.144531 -0.296875 0.109375 -0.46875 0.140625 -0.6875 L 3.875 -31.25 C 3.90625 -31.46875 3.988281 -31.632812 4.125 -31.75 C 4.257812 -31.875 4.421875 -31.9375 4.609375 -31.9375 L 11.546875 -31.9375 C 11.910156 -31.9375 12.148438 -31.769531 12.265625 -31.4375 L 14.6875 -25.5 C 14.75 -25.382812 14.84375 -25.382812 14.96875 -25.5 Z M 18.75 -31.4375 "/></g></g></g><g fill="#e5f1f9" fill-opacity="1"><g transform="translate(262.377867, 294.610293)"><g><path d="M 21.078125 -25.28125 C 21.046875 -25.0625 20.960938 -24.890625 20.828125 -24.765625 C 20.691406 -24.648438 20.515625 -24.59375 20.296875 -24.59375 L 11.8125 -24.59375 C 11.664062 -24.59375 11.59375 -24.515625 11.59375 -24.359375 L 11.046875 -19.890625 C 10.984375 -19.742188 11.039062 -19.671875 11.21875 -19.671875 L 15.65625 -19.671875 C 15.863281 -19.671875 16.019531 -19.609375 16.125 -19.484375 C 16.226562 -19.359375 16.269531 -19.191406 16.25 -18.984375 L 15.515625 -13 C 15.421875 -12.539062 15.160156 -12.3125 14.734375 -12.3125 L 10.3125 -12.3125 C 10.15625 -12.3125 10.078125 -12.238281 10.078125 -12.09375 L 9.53125 -7.578125 C 9.46875 -7.421875 9.53125 -7.34375 9.71875 -7.34375 L 18.203125 -7.34375 C 18.421875 -7.34375 18.582031 -7.28125 18.6875 -7.15625 C 18.789062 -7.039062 18.828125 -6.875 18.796875 -6.65625 L 18.0625 -0.6875 C 18.03125 -0.46875 17.945312 -0.296875 17.8125 -0.171875 C 17.675781 -0.0546875 17.503906 0 17.296875 0 L 0.90625 0 C 0.726562 0 0.582031 -0.0546875 0.46875 -0.171875 C 0.363281 -0.296875 0.328125 -0.46875 0.359375 -0.6875 L 4.109375 -31.25 C 4.140625 -31.46875 4.222656 -31.632812 4.359375 -31.75 C 4.492188 -31.875 4.65625 -31.9375 4.84375 -31.9375 L 21.21875 -31.9375 C 21.425781 -31.9375 21.582031 -31.875 21.6875 -31.75 C 21.800781 -31.632812 21.84375 -31.46875 21.8125 -31.25 Z M 21.078125 -25.28125 "/></g></g></g><g fill="#e5f1f9" fill-opacity="1"><g transform="translate(282.040589, 294.610293)"><g><path d="M 12.359375 0 C 11.992188 0 11.78125 -0.195312 11.71875 -0.59375 L 10.40625 -12.09375 C 10.40625 -12.207031 10.359375 -12.265625 10.265625 -12.265625 C 10.140625 -12.265625 10.078125 -12.191406 10.078125 -12.046875 L 8.671875 -0.6875 C 8.640625 -0.46875 8.554688 -0.296875 8.421875 -0.171875 C 8.285156 -0.0546875 8.125 0 7.9375 0 L 0.90625 0 C 0.726562 0 0.582031 -0.0546875 0.46875 -0.171875 C 0.363281 -0.296875 0.328125 -0.46875 0.359375 -0.6875 L 4.109375 -31.25 C 4.140625 -31.46875 4.222656 -31.632812 4.359375 -31.75 C 4.492188 -31.875 4.65625 -31.9375 4.84375 -31.9375 L 14.828125 -31.9375 C 17.265625 -31.9375 19.1875 -31.160156 20.59375 -29.609375 C 22.007812 -28.054688 22.71875 -26.003906 22.71875 -23.453125 C 22.71875 -22.722656 22.6875 -22.160156 22.625 -21.765625 C 22.414062 -20.085938 21.945312 -18.585938 21.21875 -17.265625 C 20.488281 -15.941406 19.546875 -14.867188 18.390625 -14.046875 C 18.234375 -13.960938 18.1875 -13.859375 18.25 -13.734375 L 20.21875 -0.78125 L 20.21875 -0.59375 C 20.21875 -0.40625 20.15625 -0.257812 20.03125 -0.15625 C 19.90625 -0.0507812 19.753906 0 19.578125 0 Z M 11.8125 -24.59375 C 11.664062 -24.59375 11.59375 -24.515625 11.59375 -24.359375 L 10.90625 -19.03125 C 10.90625 -18.875 10.976562 -18.796875 11.125 -18.796875 L 11.71875 -18.796875 C 12.457031 -18.796875 13.078125 -19.113281 13.578125 -19.75 C 14.078125 -20.394531 14.328125 -21.28125 14.328125 -22.40625 C 14.328125 -23.101562 14.160156 -23.640625 13.828125 -24.015625 C 13.492188 -24.398438 13.035156 -24.59375 12.453125 -24.59375 Z M 11.8125 -24.59375 "/></g></g></g></svg>